<?xml version="1.0" standalone="no"?>
<!DOCTYPE svg PUBLIC "-//W3C//DTD SVG 20010904//EN"
 "http://www.w3.org/TR/2001/REC-SVG-20010904/DTD/svg10.dtd">
<svg version="1.0" xmlns="http://www.w3.org/2000/svg"
 width="96.000000pt" height="96.000000pt" viewBox="0 0 96.000000 96.000000"
 preserveAspectRatio="xMidYMid meet">

<g transform="translate(0.000000,96.000000) scale(0.100000,-0.100000)"
fill="#000000" stroke="none">
<path d="M426 917 c-7 -39 -19 -51 -56 -60 -19 -5 -32 1 -57 25 l-32 31 -37
-19 c-46 -25 -47 -25 -28 -69 15 -38 15 -38 -18 -74 l-33 -36 38 34 c22 21 35
41 33 50 -19 64 -18 69 11 85 29 14 31 14 62 -15 25 -23 38 -28 59 -23 47 12
60 23 66 59 7 33 9 35 46 35 38 0 38 -1 35 -34 -4 -43 2 -50 45 -54 34 -2 34
-2 11 10 -13 7 -30 29 -36 48 -11 32 -15 35 -57 38 -45 3 -46 2 -52 -31z"/>
<path d="M638 875 c-21 -19 -34 -35 -28 -35 5 0 21 12 37 26 18 16 34 23 48
20 11 -3 23 -6 28 -6 4 0 7 -12 7 -26 0 -14 -4 -22 -10 -19 -5 3 -7 0 -4 -9 3
-8 1 -23 -5 -34 -9 -17 -7 -21 14 -26 13 -3 29 -15 35 -26 6 -11 16 -20 22
-20 7 0 -3 15 -21 34 -32 33 -33 36 -21 72 12 36 12 39 -16 61 -16 13 -33 23
-39 23 -5 0 -27 -16 -47 -35z"/>
<path d="M420 799 c0 -4 -12 -9 -27 -12 -43 -8 -135 -74 -166 -117 -62 -87
-75 -201 -33 -302 13 -32 19 -58 14 -58 -6 0 -5 -6 2 -15 7 -8 17 -15 22 -15
5 0 19 -9 31 -21 70 -66 184 -100 270 -80 135 30 220 117 249 253 10 48 9 69
-7 140 -17 76 -22 86 -62 121 -24 21 -41 42 -38 47 3 5 0 12 -6 16 -8 4 -9 3
-5 -4 10 -16 -5 -15 -26 2 -10 7 -15 16 -11 20 4 4 -1 4 -11 0 -11 -4 -17 -3
-14 2 4 5 -8 10 -25 11 -17 1 -33 6 -36 10 -7 10 -121 11 -121 2z m66 -110
c10 -8 10 -18 -1 -49 l-13 -38 46 -12 c26 -7 65 -18 87 -25 22 -7 59 -19 83
-26 30 -9 42 -17 42 -31 0 -14 -5 -18 -17 -14 -10 2 -45 12 -78 22 -33 9 -76
22 -95 29 -59 20 -83 14 -94 -22 -5 -18 -15 -33 -22 -33 -20 0 -68 20 -75 31
-4 6 -15 6 -33 -1 -37 -14 -53 -13 -60 5 -13 36 30 95 112 151 48 33 88 38
118 13z m219 -299 c-3 -5 -21 -10 -38 -10 -18 0 -50 -10 -72 -23 -32 -18 -41
-29 -43 -55 -3 -27 1 -34 22 -42 14 -5 26 -14 26 -20 0 -16 -35 -12 -69 8 -30
16 -32 16 -62 0 -34 -20 -69 -24 -69 -8 0 6 5 10 12 10 18 0 48 31 48 51 0 12
-10 19 -32 24 -77 14 -117 28 -144 50 l-29 24 228 1 c150 0 226 -3 222 -10z"/>
<path d="M71 724 c-12 -19 -21 -38 -21 -42 0 -3 13 -20 30 -37 25 -26 28 -35
22 -60 -7 -23 -18 -33 -50 -45 -41 -14 -42 -15 -40 -60 l1 -45 4 42 c4 37 8
44 31 49 15 3 32 7 38 9 15 4 44 94 33 101 -5 3 -6 10 -3 16 4 6 3 9 -2 5 -5
-3 -18 1 -29 9 -16 12 -17 19 -9 42 9 24 15 27 49 25 43 -3 43 0 -2 15 -30 10
-33 9 -52 -24z"/>
<path d="M815 740 c-16 -7 -13 -9 14 -7 31 2 35 -1 43 -31 8 -29 6 -37 -17
-60 -16 -16 -23 -31 -19 -41 4 -9 9 -26 11 -39 4 -17 16 -25 49 -33 42 -11 44
-13 44 -50 0 -36 -2 -39 -35 -45 -19 -3 -38 -11 -41 -16 -4 -6 2 -7 17 -3 68
21 69 22 69 68 0 42 -1 43 -45 55 -39 10 -45 16 -50 46 -6 30 -3 38 25 63 l32
29 -22 37 c-22 37 -38 43 -75 27z"/>
<path d="M78 414 c12 -8 22 -22 22 -31 0 -9 3 -14 6 -10 4 3 4 18 0 32 -4 17
-13 25 -28 25 l-22 0 22 -16z"/>
<path d="M83 320 c-18 -20 -33 -41 -33 -46 0 -5 10 -21 23 -37 21 -26 24 -26
60 -15 35 11 39 10 66 -16 28 -27 29 -30 17 -70 l-13 -42 38 -21 37 -20 29 29
c26 25 35 29 65 23 32 -6 37 -12 48 -51 12 -43 13 -44 55 -44 42 0 44 1 57 42
12 34 21 45 47 52 28 8 35 6 64 -22 l32 -30 38 19 c42 22 41 19 25 70 -10 36
-9 41 15 65 24 24 30 25 58 15 48 -17 55 -14 78 25 l22 36 -36 39 c-20 23 -35
33 -35 24 0 -8 9 -20 20 -27 24 -15 25 -22 4 -47 -13 -14 -25 -17 -58 -14 -39
5 -46 2 -78 -31 -33 -34 -35 -40 -27 -73 13 -59 -11 -72 -49 -28 -18 20 -28
23 -54 19 -57 -11 -81 -27 -93 -64 -10 -29 -17 -35 -41 -35 -27 0 -29 3 -29
39 0 41 -6 47 -72 59 -24 5 -38 1 -59 -16 -16 -12 -41 -22 -57 -22 -25 0 -27
2 -21 30 3 17 13 37 20 46 12 14 11 19 -9 40 -43 45 -51 49 -86 39 -35 -10
-81 4 -81 25 0 6 11 21 25 33 14 12 25 26 25 32 0 14 -1 13 -37 -30z"/>
</g>
</svg>
